<svg width="147" height="42" viewBox="0 0 147 42" fill="none" xmlns="http://www.w3.org/2000/svg">
<path d="M61.7285 7.40625V33H56.4727V7.40625H61.7285ZM69.6035 7.40625V11.5371H48.7207V7.40625H69.6035ZM68.4258 23.6836V23.3145C68.4258 21.9199 68.625 20.6367 69.0234 19.4648C69.4219 18.2812 70.002 17.2559 70.7637 16.3887C71.5254 15.5215 72.4629 14.8477 73.5762 14.3672C74.6895 13.875 75.9668 13.6289 77.4082 13.6289C78.8496 13.6289 80.1328 13.875 81.2578 14.3672C82.3828 14.8477 83.3262 15.5215 84.0879 16.3887C84.8613 17.2559 85.4473 18.2812 85.8457 19.4648C86.2441 20.6367 86.4434 21.9199 86.4434 23.3145V23.6836C86.4434 25.0664 86.2441 26.3496 85.8457 27.5332C85.4473 28.7051 84.8613 29.7305 84.0879 30.6094C83.3262 31.4766 82.3887 32.1504 81.2754 32.6309C80.1621 33.1113 78.8848 33.3516 77.4434 33.3516C76.002 33.3516 74.7188 33.1113 73.5938 32.6309C72.4805 32.1504 71.5371 31.4766 70.7637 30.6094C70.002 29.7305 69.4219 28.7051 69.0234 27.5332C68.625 26.3496 68.4258 25.0664 68.4258 23.6836ZM73.4883 23.3145V23.6836C73.4883 24.4805 73.5586 25.2246 73.6992 25.916C73.8398 26.6074 74.0625 27.2168 74.3672 27.7441C74.6836 28.2598 75.0938 28.6641 75.5977 28.957C76.1016 29.25 76.7168 29.3965 77.4434 29.3965C78.1465 29.3965 78.75 29.25 79.2539 28.957C79.7578 28.6641 80.1621 28.2598 80.4668 27.7441C80.7715 27.2168 80.9941 26.6074 81.1348 25.916C81.2871 25.2246 81.3633 24.4805 81.3633 23.6836V23.3145C81.3633 22.541 81.2871 21.8145 81.1348 21.1348C80.9941 20.4434 80.7656 19.834 80.4492 19.3066C80.1445 18.7676 79.7402 18.3457 79.2363 18.041C78.7324 17.7363 78.123 17.584 77.4082 17.584C76.6934 17.584 76.084 17.7363 75.5801 18.041C75.0879 18.3457 74.6836 18.7676 74.3672 19.3066C74.0625 19.834 73.8398 20.4434 73.6992 21.1348C73.5586 21.8145 73.4883 22.541 73.4883 23.3145ZM100.787 28.8516V6H105.885V33H101.297L100.787 28.8516ZM88.7637 23.7188V23.3496C88.7637 21.8965 88.9277 20.5781 89.2559 19.3945C89.584 18.1992 90.0645 17.1738 90.6973 16.3184C91.3301 15.4629 92.1094 14.8008 93.0352 14.332C93.9609 13.8633 95.0156 13.6289 96.1992 13.6289C97.3125 13.6289 98.2852 13.8633 99.1172 14.332C99.9609 14.8008 100.676 15.4688 101.262 16.3359C101.859 17.1914 102.34 18.2051 102.703 19.377C103.066 20.5371 103.33 21.8086 103.494 23.1914V24C103.33 25.3242 103.066 26.5547 102.703 27.6914C102.34 28.8281 101.859 29.8242 101.262 30.6797C100.676 31.5234 99.9609 32.1797 99.1172 32.6484C98.2734 33.1172 97.2891 33.3516 96.1641 33.3516C94.9805 33.3516 93.9258 33.1113 93 32.6309C92.0859 32.1504 91.3125 31.4766 90.6797 30.6094C90.0586 29.7422 89.584 28.7227 89.2559 27.5508C88.9277 26.3789 88.7637 25.1016 88.7637 23.7188ZM93.8262 23.3496V23.7188C93.8262 24.5039 93.8848 25.2363 94.002 25.916C94.1309 26.5957 94.3359 27.1992 94.6172 27.7266C94.9102 28.2422 95.2852 28.6465 95.7422 28.9395C96.2109 29.2207 96.7793 29.3613 97.4473 29.3613C98.3145 29.3613 99.0293 29.168 99.5918 28.7812C100.154 28.3828 100.582 27.8379 100.875 27.1465C101.18 26.4551 101.355 25.6582 101.402 24.7559V22.4531C101.367 21.7148 101.262 21.0527 101.086 20.4668C100.922 19.8691 100.676 19.3594 100.348 18.9375C100.031 18.5156 99.6328 18.1875 99.1523 17.9531C98.6836 17.7188 98.127 17.6016 97.4824 17.6016C96.8262 17.6016 96.2637 17.7539 95.7949 18.0586C95.3262 18.3516 94.9453 18.7559 94.6523 19.2715C94.3711 19.7871 94.1602 20.3965 94.0195 21.0996C93.8906 21.791 93.8262 22.541 93.8262 23.3496ZM109.031 23.6836V23.3145C109.031 21.9199 109.23 20.6367 109.629 19.4648C110.027 18.2812 110.607 17.2559 111.369 16.3887C112.131 15.5215 113.068 14.8477 114.182 14.3672C115.295 13.875 116.572 13.6289 118.014 13.6289C119.455 13.6289 120.738 13.875 121.863 14.3672C122.988 14.8477 123.932 15.5215 124.693 16.3887C125.467 17.2559 126.053 18.2812 126.451 19.4648C126.85 20.6367 127.049 21.9199 127.049 23.3145V23.6836C127.049 25.0664 126.85 26.3496 126.451 27.5332C126.053 28.7051 125.467 29.7305 124.693 30.6094C123.932 31.4766 122.994 32.1504 121.881 32.6309C120.768 33.1113 119.49 33.3516 118.049 33.3516C116.607 33.3516 115.324 33.1113 114.199 32.6309C113.086 32.1504 112.143 31.4766 111.369 30.6094C110.607 29.7305 110.027 28.7051 109.629 27.5332C109.23 26.3496 109.031 25.0664 109.031 23.6836ZM114.094 23.3145V23.6836C114.094 24.4805 114.164 25.2246 114.305 25.916C114.445 26.6074 114.668 27.2168 114.973 27.7441C115.289 28.2598 115.699 28.6641 116.203 28.957C116.707 29.25 117.322 29.3965 118.049 29.3965C118.752 29.3965 119.355 29.25 119.859 28.957C120.363 28.6641 120.768 28.2598 121.072 27.7441C121.377 27.2168 121.6 26.6074 121.74 25.916C121.893 25.2246 121.969 24.4805 121.969 23.6836V23.3145C121.969 22.541 121.893 21.8145 121.74 21.1348C121.6 20.4434 121.371 19.834 121.055 19.3066C120.75 18.7676 120.346 18.3457 119.842 18.041C119.338 17.7363 118.729 17.584 118.014 17.584C117.299 17.584 116.689 17.7363 116.186 18.041C115.693 18.3457 115.289 18.7676 114.973 19.3066C114.668 19.834 114.445 20.4434 114.305 21.1348C114.164 21.8145 114.094 22.541 114.094 23.3145ZM140.443 27.7441C140.443 27.3809 140.338 27.0527 140.127 26.7598C139.916 26.4668 139.523 26.1973 138.949 25.9512C138.387 25.6934 137.572 25.459 136.506 25.248C135.545 25.0371 134.648 24.7734 133.816 24.457C132.996 24.1289 132.281 23.7363 131.672 23.2793C131.074 22.8223 130.605 22.2832 130.266 21.6621C129.926 21.0293 129.756 20.3086 129.756 19.5C129.756 18.7031 129.926 17.9531 130.266 17.25C130.617 16.5469 131.115 15.9258 131.76 15.3867C132.416 14.8359 133.213 14.4082 134.15 14.1035C135.1 13.7871 136.166 13.6289 137.35 13.6289C139.002 13.6289 140.42 13.8926 141.604 14.4199C142.799 14.9473 143.713 15.6738 144.346 16.5996C144.99 17.5137 145.312 18.5566 145.312 19.7285H140.25C140.25 19.2363 140.145 18.7969 139.934 18.4102C139.734 18.0117 139.418 17.7012 138.984 17.4785C138.562 17.2441 138.012 17.127 137.332 17.127C136.77 17.127 136.283 17.2266 135.873 17.4258C135.463 17.6133 135.146 17.8711 134.924 18.1992C134.713 18.5156 134.607 18.8672 134.607 19.2539C134.607 19.5469 134.666 19.8105 134.783 20.0449C134.912 20.2676 135.117 20.4727 135.398 20.6602C135.68 20.8477 136.043 21.0234 136.488 21.1875C136.945 21.3398 137.508 21.4805 138.176 21.6094C139.547 21.8906 140.771 22.2598 141.85 22.7168C142.928 23.1621 143.783 23.7715 144.416 24.5449C145.049 25.3066 145.365 26.3086 145.365 27.5508C145.365 28.3945 145.178 29.168 144.803 29.8711C144.428 30.5742 143.889 31.1895 143.186 31.7168C142.482 32.2324 141.639 32.6367 140.654 32.9297C139.682 33.2109 138.586 33.3516 137.367 33.3516C135.598 33.3516 134.098 33.0352 132.867 32.4023C131.648 31.7695 130.723 30.9668 130.09 29.9941C129.469 29.0098 129.158 28.002 129.158 26.9707H133.957C133.98 27.6621 134.156 28.2188 134.484 28.6406C134.824 29.0625 135.252 29.3672 135.768 29.5547C136.295 29.7422 136.863 29.8359 137.473 29.8359C138.129 29.8359 138.674 29.748 139.107 29.5723C139.541 29.3848 139.869 29.1387 140.092 28.834C140.326 28.5176 140.443 28.1543 140.443 27.7441Z" fill="#fa8c25"/>
<g clip-path="url(#clip0_1_9)">
<path d="M33.5793 8.46569C29.9019 5.67901 24.2431 4.01534 18.4416 4.01534C11.2658 4.01534 5.4185 6.52071 2.39921 10.889C0.981168 12.9407 0.196844 15.3701 0.0680823 18.1099C-0.0466013 20.5494 0.363059 23.2473 1.28611 26.1499C4.43622 16.7074 13.2333 9.3125 23.375 9.3125C23.375 9.3125 13.8847 11.8104 7.91816 19.5454C7.91444 19.55 7.83535 19.648 7.69856 19.8342C6.50059 21.4372 5.45609 23.2595 4.67448 25.3236C3.35068 28.4723 2.12502 32.7926 2.12502 38H6.37501C6.37501 38 5.72988 33.9418 6.85181 29.2745C8.70753 29.5254 10.3666 29.6499 11.8606 29.6499C15.7678 29.6499 18.5467 28.8046 20.6059 26.9896C22.4509 25.3634 23.4679 23.1783 24.5446 20.8651C26.1889 17.332 28.0526 13.3276 33.4647 10.235C33.7745 10.058 33.9748 9.73723 33.9978 9.38116C34.0209 9.02509 33.8637 8.68124 33.5793 8.46569V8.46569Z" fill="#fa8c25"/>
</g>
<defs>
<clipPath id="clip0_1_9">
<rect width="34" height="34" fill="white" transform="translate(0 4)"/>
</clipPath>
</defs>
</svg>
